<svg id="visual" viewBox="0 0 1250 200" width="1250" height="200" xmlns="http://www.w3.org/2000/svg" xmlns:xlink="http://www.w3.org/1999/xlink" version="1.1"><path d="M0 101L52.2 89.7C104.3 78.3 208.7 55.7 312.8 53C417 50.3 521 67.7 625.2 66.7C729.3 65.7 833.7 46.3 937.8 36.3C1042 26.3 1146 25.7 1198 25.3L1250 25L1250 0L1198 0C1146 0 1042 0 937.8 0C833.7 0 729.3 0 625.2 0C521 0 417 0 312.8 0C208.7 0 104.3 0 52.2 0L0 0Z" fill="#9dc089"></path><path d="M0 121L52.2 108C104.3 95 208.7 69 312.8 65C417 61 521 79 625.2 81.7C729.3 84.3 833.7 71.7 937.8 65.7C1042 59.7 1146 60.3 1198 60.7L1250 61L1250 23L1198 23.3C1146 23.7 1042 24.3 937.8 34.3C833.7 44.3 729.3 63.7 625.2 64.7C521 65.7 417 48.3 312.8 51C208.7 53.7 104.3 76.3 52.2 87.7L0 99Z" fill="#95b980"></path><path d="M0 143L52.2 132.7C104.3 122.3 208.7 101.7 312.8 100C417 98.3 521 115.7 625.2 119.3C729.3 123 833.7 113 937.8 110.3C1042 107.7 1146 112.3 1198 114.7L1250 117L1250 59L1198 58.7C1146 58.3 1042 57.7 937.8 63.7C833.7 69.7 729.3 82.3 625.2 79.7C521 77 417 59 312.8 63C208.7 67 104.3 93 52.2 106L0 119Z" fill="#8db278"></path><path d="M0 167L52.2 168C104.3 169 208.7 171 312.8 170.3C417 169.7 521 166.3 625.2 169C729.3 171.7 833.7 180.3 937.8 182.3C1042 184.3 1146 179.7 1198 177.3L1250 175L1250 115L1198 112.7C1146 110.3 1042 105.7 937.8 108.3C833.7 111 729.3 121 625.2 117.3C521 113.7 417 96.3 312.8 98C208.7 99.7 104.3 120.3 52.2 130.7L0 141Z" fill="#85ab6f"></path><path d="M0 201L52.2 201C104.3 201 208.7 201 312.8 201C417 201 521 201 625.2 201C729.3 201 833.7 201 937.8 201C1042 201 1146 201 1198 201L1250 201L1250 173L1198 175.3C1146 177.7 1042 182.3 937.8 180.3C833.7 178.3 729.3 169.7 625.2 167C521 164.3 417 167.7 312.8 168.3C208.7 169 104.3 167 52.2 166L0 165Z" fill="#7da567"></path></svg>